# xmcd
#
# Track frame offsets: 
#        150
#        29340
#        53895
#        79345
#        119898
#        143993
#        178595
#        222293
#
# Disc length: 3362 seconds
#
# Revision: 0
# Processed by: cddbd v1.5.2PL0 Copyright (c) Steve Scherf et al.
# Submitted via: ExactAudioCopyFreeDBPlugin 1.0
#
DISCID=790d2008
DTITLE=Mike Westcott - Live At Vincent's
DYEAR=2008
DGENRE=Blues Rock
TTITLE0=Damn right I got the blues
TTITLE1=Rock and roll
TTITLE2=Rock me Baby
TTITLE3=Merry go round
TTITLE4=Born under a bad sign
TTITLE5=Walkin' the dog
TTITLE6=Voodoo child (Slight return)
TTITLE7=Bonus song
EXTD=
EXTT0=
EXTT1=
EXTT2=
EXTT3=
EXTT4=
EXTT5=
EXTT6=
EXTT7=
PLAYORDER=
